<svg version="1.0" xmlns="http://www.w3.org/2000/svg"
 width="100" height="64" viewBox="0 0 300.000000 338.000000"
 preserveAspectRatio="xMidYMid meet">
<metadata>
Created by potrace 1.10, written by Peter Selinger 2001-2011
</metadata>
<g transform="translate(0.000000,338.000000) scale(0.100000,-0.100000)"
fill="rgb(103, 93, 216)" stroke="none">
<path d="M1125 2994 c-143 -35 -270 -66 -282 -69 -22 -5 -22 -5 -3 -38 10 -17
26 -51 36 -75 16 -41 16 -44 -2 -57 -55 -41 -58 -40 -111 15 l-49 52 -261
-149 -260 -149 35 -39 c67 -78 159 -201 205 -275 l46 -75 -6 -82 c-5 -70 -3
-87 16 -126 24 -49 91 -117 116 -117 16 0 21 -16 6 -22 -16 -6 -101 -204 -121
-283 -27 -107 -27 -273 0 -381 62 -242 227 -435 470 -553 42 -20 71 -29 84
-24 12 3 32 7 46 9 32 3 118 42 140 64 9 9 85 51 103 57 9 3 17 9 17 14 0 5 6
9 14 9 8 0 16 4 18 8 2 4 21 19 43 32 53 32 199 141 203 151 2 5 8 9 14 9 6 0
27 15 47 32 21 18 61 53 91 78 94 79 237 234 307 334 12 17 28 38 36 46 8 8
28 38 44 65 17 28 51 83 78 124 26 40 56 95 65 121 l18 48 -49 75 c-92 140
-250 269 -409 332 -129 52 -121 47 -113 80 16 60 6 154 -22 211 -23 48 -114
144 -136 144 -4 0 -13 19 -19 43 -42 164 -152 428 -179 426 -9 -1 -133 -30
-276 -65z m317 -71 c74 -159 98 -249 102 -375 1 -60 -1 -111 -4 -113 -4 -3
-15 37 -25 88 -21 112 -63 242 -109 343 -28 60 -39 74 -53 70 -42 -12 -240
-58 -268 -61 -16 -2 -46 -9 -65 -16 -19 -6 -41 -13 -47 -15 -7 -2 -10 -9 -8
-16 5 -13 -33 -44 -42 -34 -3 3 -16 27 -28 54 l-23 49 137 33 c75 17 186 45
246 60 61 16 117 29 126 29 11 1 31 -30 61 -96z m-82 -37 c0 -8 5 -16 11 -18
5 -2 7 -11 3 -21 -12 -33 -94 -3 -94 34 0 9 25 16 58 18 13 1 22 -5 22 -13z
m-114 -30 c10 -25 55 -48 107 -55 l49 -6 24 -65 c24 -66 76 -271 71 -277 -2
-1 -33 13 -69 32 -49 26 -69 43 -79 67 -15 37 -147 204 -203 258 l-37 35 48
11 c67 16 83 16 89 0z m-106 -90 c39 -41 96 -107 125 -146 48 -64 53 -74 39
-85 -15 -10 -15 -14 1 -44 28 -55 10 -45 -28 16 -40 66 -192 243 -208 243 -5
0 -50 -27 -99 -60 l-89 -60 -21 27 c-11 14 -19 30 -18 34 3 8 209 147 220 148
4 1 39 -32 78 -73z m-365 -56 c82 -94 189 -257 245 -374 47 -99 124 -305 116
-313 -10 -10 -97 132 -130 212 -59 145 -141 279 -253 411 l-44 52 -182 -106
-183 -106 66 -82 c79 -99 201 -301 193 -321 -3 -7 -9 -13 -12 -11 -19 8 -112
125 -163 205 -32 49 -85 122 -119 162 -33 40 -58 75 -55 78 13 13 452 262 458
260 4 -1 32 -31 63 -67z m325 -34 c18 -26 19 -42 3 -38 -7 1 -13 -2 -13 -8 0
-13 -50 -9 -72 5 -15 10 -15 13 4 43 16 26 25 31 42 26 11 -4 28 -16 36 -28z
m-113 -24 c-23 -25 -22 -27 17 -46 43 -20 79 -20 117 0 28 14 31 14 49 -8 32
-38 142 -199 139 -203 -2 -1 -60 12 -129 29 -173 45 -181 41 -95 -61 89 -104
133 -214 147 -363 3 -31 0 -35 -21 -35 -22 0 -27 10 -60 120 -43 140 -128 332
-195 434 -25 40 -47 76 -49 81 -2 9 72 68 87 69 5 1 2 -7 -7 -17z m-247 -39
c15 -17 19 -28 12 -31 -7 -2 -10 -8 -6 -13 9 -16 -43 -10 -75 9 -30 16 -42 42
-20 42 5 0 8 4 5 8 -2 4 10 9 28 10 24 2 38 -4 56 -25z m-124 -19 c-3 -41 91
-73 151 -51 19 7 27 1 56 -38 18 -26 42 -62 52 -81 l18 -34 -32 -41 c-18 -22
-48 -74 -68 -115 -19 -42 -38 -73 -41 -69 -4 3 -11 39 -17 78 -5 40 -14 72
-18 72 -5 0 -28 -42 -52 -93 l-42 -93 -28 53 c-15 29 -47 83 -71 120 l-43 68
25 37 c21 32 25 47 22 92 l-3 55 45 27 c25 15 46 28 46 28 1 1 1 -6 0 -15z
m1005 -60 c44 -30 82 -83 99 -137 16 -50 9 -169 -10 -192 -8 -10 -109 -65
-225 -122 l-210 -103 -7 27 c-3 16 -14 64 -22 108 -19 95 -53 168 -112 241
-24 30 -44 55 -44 57 0 2 37 -7 83 -20 45 -13 103 -27 128 -30 41 -5 48 -3 58
16 10 17 8 30 -9 68 -11 25 -19 48 -17 50 2 2 46 -20 96 -48 131 -72 158 -60
149 61 -1 27 -1 50 1 50 3 0 22 -12 42 -26z m-1121 -55 c0 -22 -4 -38 -9 -35
-5 3 -12 -6 -16 -22 l-7 -27 -23 28 c-13 15 -28 27 -33 27 -6 0 -13 7 -16 16
-3 8 -2 13 2 10 4 -2 21 7 37 20 46 37 65 32 65 -17z m475 -279 c33 -65 97
-155 147 -206 l50 -52 -108 -35 c-165 -54 -298 -88 -353 -89 -131 -3 -232 123
-207 258 l7 37 30 -37 c52 -62 72 -50 126 76 30 73 43 85 43 39 0 -30 22 -61
43 -61 24 0 36 17 67 84 16 38 44 86 61 108 l31 39 22 -63 c13 -35 31 -79 41
-98z m767 -35 c3 -3 -32 -44 -78 -90 -78 -78 -97 -105 -75 -105 13 0 162 160
170 184 5 12 10 15 15 8 11 -18 -175 -224 -190 -209 -3 3 -16 -5 -29 -17 -39
-36 -52 -45 -115 -82 -33 -19 -70 -37 -81 -39 -45 -9 -150 -68 -179 -101 -22
-25 -36 -34 -50 -29 -10 3 -28 0 -39 -7 -17 -10 -26 -9 -59 9 -34 20 -52 22
-162 21 -69 -1 -154 -1 -189 0 l-63 2 7 27 c11 45 21 50 113 55 107 7 301 61
421 119 45 22 95 42 110 44 14 1 46 11 71 21 53 21 351 172 365 185 10 10 29
12 37 4z m183 -82 c144 -72 289 -214 359 -351 l17 -32 -45 -69 c-113 -175
-314 -428 -417 -527 -188 -178 -454 -369 -716 -514 l-43 -24 -67 28 c-156 64
-319 204 -405 347 -126 213 -136 478 -28 711 l13 27 201 -2 c145 -1 205 -6
214 -14 7 -7 19 -13 26 -13 9 0 11 -21 8 -85 -6 -113 7 -157 86 -299 61 -110
66 -123 66 -180 -1 -71 -19 -113 -66 -150 -18 -14 -27 -26 -19 -26 8 0 34 20
57 44 32 34 45 58 54 99 16 70 9 107 -41 201 -49 94 -66 141 -79 220 -9 59 -3
196 9 196 3 0 17 -21 30 -46 48 -90 135 -141 297 -174 122 -25 164 -52 200
-127 22 -45 26 -63 21 -107 -10 -95 -75 -167 -169 -185 l-43 -9 38 -1 c76 -2
162 56 198 134 27 58 25 150 -4 206 -37 70 -88 102 -212 133 -145 36 -204 68
-260 142 l-26 34 36 34 c19 19 63 44 97 57 75 28 249 131 318 189 28 23 78 75
111 115 l60 73 37 -15 c20 -8 60 -27 87 -40z"/>
<path d="M1345 2329 c61 -36 106 -96 131 -174 7 -23 13 -31 13 -19 3 68 -78
182 -139 198 -23 6 -23 6 -5 -5z"/>
<path d="M615 1990 c5 -38 56 -92 123 -130 l37 -21 -26 23 c-14 13 -46 39 -71
60 -24 20 -50 51 -56 70 l-12 33 5 -35z"/>
<path d="M1423 1870 c-29 -17 -53 -33 -53 -35 0 -7 69 29 95 49 31 24 15 19
-42 -14z"/>
<path d="M1757 1905 c151 -68 272 -184 366 -350 15 -27 25 -39 22 -25 -8 29
-53 109 -72 128 -7 7 -13 17 -13 21 0 12 -132 139 -175 168 -49 33 -151 83
-168 82 -6 0 11 -11 40 -24z"/>
<path d="M1700 1907 c0 -4 14 -32 32 -63 17 -31 37 -82 44 -113 15 -63 18
-131 6 -131 -4 0 -25 29 -46 65 -38 65 -92 118 -153 149 -49 25 -40 12 18 -25
64 -41 119 -110 148 -185 13 -33 26 -68 31 -79 11 -29 24 102 17 172 -3 30
-19 82 -35 116 -29 61 -61 110 -62 94z"/>
<path d="M1530 1808 c0 -4 9 -23 21 -42 11 -19 19 -42 17 -51 -2 -12 -8 -11
-29 9 -26 24 -81 56 -96 56 -4 0 15 -16 44 -35 45 -30 65 -53 119 -132 20 -29
-2 80 -24 123 -22 43 -51 83 -52 72z"/>
<path d="M735 1608 c-38 -92 -49 -163 -49 -308 0 -120 4 -159 22 -225 45 -157
118 -280 228 -385 l57 -55 -64 73 c-221 250 -290 556 -195 857 25 77 25 100 1
43z"/>
<path d="M2300 2520 c-80 -17 -227 -62 -260 -81 -25 -14 -6 -10 66 13 51 17
93 23 165 23 88 0 99 -2 137 -28 127 -83 115 -270 -34 -569 -52 -104 -56 -122
-22 -95 17 13 112 187 102 187 -3 0 2 12 10 28 27 47 56 186 56 263 -1 96 -2
109 -11 109 -4 0 -10 11 -13 24 -3 13 -25 42 -48 64 -37 36 -40 42 -24 48 11
4 43 -1 73 -11 61 -21 118 -77 131 -129 8 -29 7 -119 -2 -181 -5 -38 -49 -159
-58 -163 -5 -2 -8 -10 -8 -18 0 -26 -43 -113 -53 -107 -6 3 -7 1 -3 -5 3 -6
-1 -17 -9 -25 -8 -9 -15 -21 -15 -27 0 -7 -8 -24 -18 -38 -11 -15 -25 -42 -33
-59 -8 -18 -17 -33 -20 -33 -4 0 -21 -29 -38 -65 -28 -59 -30 -70 -21 -108 17
-74 12 -236 -10 -323 -108 -423 -537 -716 -1011 -691 l-117 7 -88 -45 c-48
-25 -92 -45 -97 -45 -5 0 -22 -9 -38 -21 -16 -11 -29 -17 -29 -13 0 3 -6 1
-13 -5 -8 -6 -16 -9 -19 -6 -3 3 -11 -1 -18 -10 -7 -8 -20 -15 -30 -15 -10 0
-34 -7 -53 -15 -20 -8 -49 -15 -65 -15 -15 0 -33 -5 -38 -10 -14 -14 -163 -18
-172 -5 -4 6 -16 12 -26 13 -28 5 -63 33 -78 62 -7 14 -16 28 -21 31 -11 8
-16 99 -4 99 5 0 31 -20 58 -44 56 -50 84 -58 194 -56 99 1 292 57 313 90 7
11 9 20 5 20 -5 0 -53 -16 -108 -36 -125 -45 -257 -57 -330 -30 -126 49 -153
182 -80 396 37 109 24 96 -19 -19 -116 -314 -99 -481 56 -545 52 -22 178 -20
271 4 91 23 244 85 336 137 l66 37 195 1 c179 1 203 4 290 28 329 93 591 328
691 620 49 145 58 274 28 425 -9 43 -8 57 3 70 17 20 91 142 136 224 76 138
142 340 142 436 0 68 -19 128 -56 170 -62 73 -166 93 -314 62z"/>
<path d="M2304 1557 c-25 -28 -75 -95 -96 -127 -9 -14 -32 -42 -52 -64 -20
-21 -36 -40 -36 -42 0 -2 -11 -17 -24 -32 -13 -15 -65 -75 -115 -134 -51 -59
-98 -111 -106 -115 -7 -5 -31 -24 -52 -43 -79 -72 -140 -121 -264 -212 -107
-78 -120 -87 -141 -94 -10 -4 -18 -9 -18 -13 0 -4 -16 -15 -35 -25 -19 -11
-35 -23 -35 -28 0 -4 -6 -8 -13 -8 -15 0 -90 -60 -83 -67 12 -13 201 105 371
231 288 215 464 400 677 714 49 72 61 104 22 59z"/>
<path d="M2201 1146 c0 -99 1 -177 3 -175 10 10 17 277 8 314 -7 31 -10 -2
-11 -139z"/>
</g>
</svg>